# xmcd
#
# Track frame offsets: 
#        150
#        9260
#        27397
#        35998
#        47670
#        76947
#        93334
#        107794
#        123786
#        136207
#        152877
#        162397
#        175389
#        188374
#        207145
#        232034
#        248449
#        264504
#        287360
#        302328
#        315491
#        327761
#
# Disc length: 4420 seconds
#
# Revision: 0
# Processed by: cddbd v1.5.1PL0 Copyright (c) Steve Scherf et al.
# Submitted via: ExactAudioCopy v0.95a5
#
DISCID=14114216
DTITLE=Various Artist - Motor City Blues
DYEAR=1998
DGENRE=Blues
TTITLE0=Bobo Jenkins - 24 Years
TTITLE1=Baby Boy Warren - Too Many Drivers
TTITLE2=Dr. Ross - Boogie Disease
TTITLE3=One String Sam - I Need $100
TTITLE4=Eddie Kirkland - Mojo In Her Backbone
TTITLE5=Eddie Burns - I Call It Love
TTITLE6=Bobo Jenkins - Feelin' and Rockin'
TTITLE7=Washboard Willie - Do You Wanna Jump
TTITLE8=Dr. Ross - Chicago Breakdown
TTITLE9=Eddie Kirkland - I Got The Blues
TTITLE10=Boogie Woogie Red - The Viper Song
TTITLE11=Mr. Bo - Don't Want No Woman
TTITLE12=Bobo Jenkins - She Wanna Sell My Monkey
TTITLE13=Washboard Willie - Wee Baby Blues
TTITLE14=Baby Boy Warren - She's Fine
TTITLE15=Joe L. - Please Mr. Foreman
TTITLE16=Little Junior - I Got My Eyes On You
TTITLE17=Boogie Woogie Red - Red's Boogie
TTITLE18=Johnny Mae Matthews - Send You Back To Georgia
TTITLE19=Eddie Burns - Better Watch What You're Doing
TTITLE20=Joe L. - In The Evening
TTITLE21=One String Sam - I Got To Go
EXTD=Total Energy Ner3019\nRecorded live at the 1973 Ann Arbor Blues &
EXTD=Jazz Festival\nProduced by John Sinclair
EXTT0=
EXTT1=
EXTT2=
EXTT3=
EXTT4=
EXTT5=
EXTT6=
EXTT7=
EXTT8=
EXTT9=
EXTT10=
EXTT11=
EXTT12=
EXTT13=
EXTT14=
EXTT15=
EXTT16=
EXTT17=
EXTT18=
EXTT19=
EXTT20=
EXTT21=
PLAYORDER=
